<svg width="20" height="20" viewBox="0 0 20 20" fill="none" xmlns="http://www.w3.org/2000/svg">
<g clip-path="url(#clip0)">
<path d="M17.0825 2.97412C15.1412 1.00944 12.4749 -0.0664493 9.715 0.00371765C4.21859 0.167441 -0.0849835 4.72829 0.0787393 10.2247C0.102128 11.3708 0.336018 12.4934 0.75702 13.5459C1.10785 14.4347 1.57563 15.2533 2.16036 16.0018L1.34174 17.9431C1.0143 18.6915 1.36513 19.5569 2.11358 19.8844C2.37086 20.0013 2.67492 20.0247 2.95558 19.9779L6.7446 19.323C8.10116 19.7908 9.52789 19.9545 10.9546 19.8142C15.8429 19.323 19.6553 15.3235 19.9126 10.4118C20.0529 7.62853 19.0238 4.93879 17.0825 2.97412ZM9.27061 13.8968H6.67443C6.27682 13.8968 5.92599 13.5693 5.92599 13.1483C5.92599 12.7507 6.25343 12.3999 6.67443 12.3999H9.27061C9.66822 12.3999 10.0191 12.7273 10.0191 13.1483C10.0191 13.5693 9.69161 13.8968 9.27061 13.8968ZM13.3169 10.8562H6.67443C6.27682 10.8562 5.92599 10.5288 5.92599 10.1078C5.92599 9.68676 6.25343 9.35931 6.67443 9.35931H13.3169C13.7145 9.35931 14.0654 9.68676 14.0654 10.1078C14.0654 10.5288 13.7145 10.8562 13.3169 10.8562ZM13.3169 7.79225H6.67443C6.27682 7.79225 5.92599 7.4648 5.92599 7.0438C5.92599 6.64619 6.25343 6.29535 6.67443 6.29535H13.3169C13.7145 6.29535 14.0654 6.6228 14.0654 7.0438C14.0654 7.44141 13.7145 7.79225 13.3169 7.79225Z" fill="#4B9DB9"/>
</g>
<defs>
<clipPath id="clip0">
<rect width="20" height="20" fill="white" transform="translate(0 0.000488281)"/>
</clipPath>
</defs>
</svg>
