<svg width="16" height="16" viewBox="0 0 16 16" fill="none" xmlns="http://www.w3.org/2000/svg">
<g clip-path="url(#clip0)">
<path d="M11.769 3.42863C12.7158 3.42863 13.4833 2.66106 13.4833 1.71431C13.4833 0.767563 12.7158 0 11.769 0C10.8222 0 10.0547 0.7675 10.0547 1.71428C10.0547 2.66106 10.8222 3.42863 11.769 3.42863Z" fill="#4B9DB9"/>
<path d="M4.22991 3.42863C5.17669 3.42863 5.94419 2.66106 5.94419 1.71431C5.94419 0.767563 5.17666 0 4.22991 0C3.28312 0 2.51562 0.7675 2.51562 1.71428C2.51562 2.66106 3.28309 3.42863 4.22991 3.42863Z" fill="#4B9DB9"/>
<path d="M10.0312 15.5314C10.0312 15.7903 10.2412 16.0002 10.5 16.0002H13.0389C13.2978 16.0002 13.5077 15.7903 13.5077 15.5314V13.9067H10.0312V15.5314Z" fill="#4B9DB9"/>
<path d="M15 12.2536L14.0183 10.4687H14.6007C14.8596 10.4687 15.0694 10.2588 15.0694 9.99995V6.72931C15.0694 5.48468 14.3769 4.3989 13.357 3.83664C12.914 4.16896 12.3641 4.36605 11.769 4.36605C11.1737 4.36605 10.6237 4.16883 10.1806 3.83643C9.16053 4.39862 8.46778 5.48453 8.46778 6.72931V9.99995C8.46778 10.2588 8.67769 10.4687 8.93653 10.4687H9.38479L8.51331 12.2987C8.44416 12.4439 8.45428 12.6145 8.54016 12.7505C8.62603 12.8865 8.77569 12.969 8.93653 12.969H14.6007H14.6014C14.8602 12.969 15.0701 12.7591 15.0701 12.5002C15.0701 12.4097 15.0444 12.3252 15 12.2536ZM11.7687 6.24115C11.5098 6.24115 11.3 6.03128 11.3 5.7724C11.3 5.51353 11.5098 5.30365 11.7687 5.30365C12.0275 5.30365 12.2375 5.51353 12.2375 5.7724C12.2375 6.03128 12.0275 6.24115 11.7687 6.24115Z" fill="#4B9DB9"/>
<path d="M5.81761 3.83643C5.4937 4.07943 5.11238 4.24936 4.69826 4.32358V6.16297C4.69826 6.42184 4.48838 6.63172 4.2295 6.63172C3.97063 6.63172 3.76075 6.42184 3.76075 6.16297V4.32358C3.34663 4.24936 2.96528 4.07943 2.64137 3.83643C1.62131 4.39858 0.928711 5.48443 0.928711 6.72916V11.2499C0.928711 11.5088 1.13859 11.7187 1.39746 11.7187H2.17878V15.531C2.17878 15.7899 2.38865 15.9998 2.64753 15.9998H5.80364C6.06251 15.9998 6.27239 15.7899 6.27239 15.531V11.7187H7.06155C7.32042 11.7187 7.5303 11.5088 7.5303 11.25V6.72919C7.5303 5.48443 6.83767 4.39858 5.81761 3.83643Z" fill="#4B9DB9"/>
</g>
<defs>
<clipPath id="clip0">
<rect width="16" height="16" fill="white"/>
</clipPath>
</defs>
</svg>
