<svg width="40" height="40" viewBox="0 0 40 40" fill="none" xmlns="http://www.w3.org/2000/svg">
<path d="M33.3337 20V36.6667H6.66699V20" stroke="#4B9DB9" stroke-width="3" stroke-linecap="round" stroke-linejoin="round"/>
<path d="M36.6663 11.6675H3.33301V20.0008H36.6663V11.6675Z" stroke="#4B9DB9" stroke-width="3" stroke-linecap="round" stroke-linejoin="round"/>
<path d="M20 36.6675V11.6675" stroke="#4B9DB9" stroke-width="3" stroke-linecap="round" stroke-linejoin="round"/>
<path d="M19.9997 11.6659H12.4997C11.3946 11.6659 10.3348 11.2269 9.5534 10.4455C8.77199 9.66406 8.33301 8.60425 8.33301 7.49919C8.33301 6.39412 8.77199 5.33431 9.5534 4.55291C10.3348 3.77151 11.3946 3.33252 12.4997 3.33252C18.333 3.33252 19.9997 11.6659 19.9997 11.6659Z" stroke="#4B9DB9" stroke-width="3" stroke-linecap="round" stroke-linejoin="round"/>
<path d="M20 11.6659H27.5C28.6051 11.6659 29.6649 11.2269 30.4463 10.4455C31.2277 9.66406 31.6667 8.60425 31.6667 7.49919C31.6667 6.39412 31.2277 5.33431 30.4463 4.55291C29.6649 3.77151 28.6051 3.33252 27.5 3.33252C21.6667 3.33252 20 11.6659 20 11.6659Z" stroke="#4B9DB9" stroke-width="3" stroke-linecap="round" stroke-linejoin="round"/>
</svg>
