<svg width="40" height="24" viewBox="0 0 40 24" fill="none" xmlns="http://www.w3.org/2000/svg">
<g clip-path="url(#clip0)">
<path d="M25.4077 2.56665H14.5923V21.4333H25.4077V2.56665Z" fill="#FF5F00"/>
<path d="M15.279 12C15.279 8.16666 17.133 4.76667 19.9828 2.56667C17.8884 0.96667 15.2446 0 12.3605 0C5.5279 0 0 5.36666 0 12C0 18.6333 5.5279 24 12.3605 24C15.2446 24 17.8884 23.0333 19.9828 21.4333C17.133 19.2667 15.279 15.8333 15.279 12Z" fill="#EB001B"/>
<path d="M39.9999 12C39.9999 18.6333 34.472 24 27.6394 24C24.7553 24 22.1115 23.0333 20.0171 21.4333C22.9012 19.2333 24.721 15.8333 24.721 12C24.721 8.16666 22.8669 4.76667 20.0171 2.56667C22.1115 0.96667 24.7553 0 27.6394 0C34.472 0 39.9999 5.4 39.9999 12Z" fill="#F79E1B"/>
</g>
<defs>
<clipPath id="clip0">
<rect width="40" height="24" fill="white"/>
</clipPath>
</defs>
</svg>
