<svg width="20" height="20" viewBox="0 0 20 20" fill="none" xmlns="http://www.w3.org/2000/svg">
<path d="M11.9008 1.73633H8.07557C7.68434 1.73633 7.36719 2.05349 7.36719 2.44471V17.5498C7.36719 17.941 7.68434 18.2582 8.07557 18.2582H11.9008C12.292 18.2582 12.6092 17.941 12.6092 17.5498V2.44471C12.6092 2.05344 12.292 1.73633 11.9008 1.73633Z" fill="#4B9DB9"/>
<path d="M19.2915 10.5439H15.4662C15.075 10.5439 14.7578 10.8611 14.7578 11.2523V17.5546C14.7578 17.9458 15.075 18.263 15.4662 18.263H19.2915C19.6827 18.263 19.9998 17.9458 19.9998 17.5546V11.2523C19.9998 10.8611 19.6827 10.5439 19.2915 10.5439Z" fill="#4B9DB9"/>
<path d="M4.53365 7.37939H0.708382C0.317158 7.37939 0 7.69655 0 8.08778V17.5447C0 17.9359 0.317158 18.2531 0.708382 18.2531H4.53365C4.92487 18.2531 5.24203 17.9359 5.24203 17.5447V8.08778C5.24203 7.69655 4.92487 7.37939 4.53365 7.37939Z" fill="#4B9DB9"/>
</svg>
